<?xml version="1.0" standalone="no"?>
<!DOCTYPE svg PUBLIC "-//W3C//DTD SVG 20010904//EN"
 "http://www.w3.org/TR/2001/REC-SVG-20010904/DTD/svg10.dtd">
<svg version="1.0" xmlns="http://www.w3.org/2000/svg"
 width="640.000000pt" height="640.000000pt" viewBox="0 0 640.000000 640.000000"
 preserveAspectRatio="xMidYMid meet">
<metadata>
Created by potrace 1.14, written by Peter Selinger 2001-2017
</metadata>
<g transform="translate(0.000000,640.000000) scale(0.100000,-0.100000)"
fill="#000000" stroke="none">
<path d="M1810 6091 c-195 -53 -419 -211 -533 -375 -177 -255 -232 -599 -140
-867 16 -45 15 -48 -6 -78 -71 -99 -121 -290 -121 -458 0 -179 78 -409 169
-497 l40 -39 -35 -41 c-49 -57 -112 -187 -120 -248 -6 -44 -15 -58 -75 -123
-147 -159 -259 -373 -284 -541 -38 -263 -28 -365 52 -536 l46 -97 -19 -93
c-14 -68 -19 -136 -19 -253 0 -177 17 -260 74 -373 103 -202 310 -404 511
-500 109 -52 324 -102 438 -102 40 0 71 -8 116 -30 70 -34 204 -88 291 -119
89 -30 404 -109 509 -126 244 -41 655 -38 868 6 127 25 320 90 368 124 20 14
49 25 66 25 32 0 160 24 214 40 19 5 42 10 50 10 8 0 35 -33 59 -73 66 -107
97 -144 160 -186 190 -128 369 -151 616 -80 129 37 293 175 348 291 78 167 97
303 58 418 -14 42 -16 58 -7 69 9 12 8 13 -8 8 -15 -6 -17 -3 -13 12 4 15 -4
25 -28 40 -26 15 -37 30 -45 63 -19 74 -52 162 -77 201 -120 190 -388 251
-638 146 -114 -48 -141 -66 -207 -133 -86 -88 -131 -152 -196 -283 -42 -83
-53 -116 -61 -185 -6 -50 -7 -98 -2 -121 11 -46 9 -47 -146 -82 -56 -13 -114
-30 -130 -39 -56 -30 -80 -38 -183 -63 -246 -57 -332 -65 -630 -60 -315 6
-410 18 -639 78 -194 51 -239 66 -426 146 -137 59 -159 65 -255 74 -58 6 -127
16 -155 24 -132 34 -298 115 -411 198 -59 43 -193 183 -220 228 -39 67 -82
171 -94 224 -18 80 -16 266 4 395 l17 105 -34 65 c-82 157 -98 260 -73 463 13
108 22 143 57 222 55 126 145 255 235 339 64 59 76 76 90 125 23 79 56 139
108 201 58 68 65 118 23 155 -100 89 -176 270 -193 460 -11 130 34 334 100
445 56 96 58 109 28 192 -24 68 -26 85 -27 248 l0 175 37 104 c47 131 86 196
171 287 74 78 189 155 292 193 170 64 401 17 539 -110 68 -62 104 -112 156
-217 84 -172 114 -374 84 -579 -17 -124 -15 -150 21 -197 13 -17 40 -65 60
-107 29 -61 38 -96 46 -175 13 -125 10 -154 -46 -381 -30 -121 -43 -189 -36
-196 13 -13 46 -13 252 -3 190 9 466 -4 594 -29 116 -22 170 -26 203 -14 41
14 48 41 33 129 -14 85 -14 289 -1 361 13 69 77 198 134 270 24 31 83 89 131
129 47 39 93 82 101 96 9 13 20 63 26 112 34 319 163 534 402 663 54 29 145
57 213 64 94 11 176 -8 288 -65 187 -94 313 -253 364 -455 18 -73 34 -235 28
-293 -6 -65 -73 -243 -120 -316 -17 -27 -58 -81 -90 -120 -100 -119 -103 -127
-109 -246 -6 -124 -27 -189 -92 -294 -43 -69 -101 -130 -177 -186 -73 -55 -81
-65 -86 -110 -5 -44 -4 -46 77 -135 66 -73 92 -111 134 -200 88 -183 97 -218
106 -401 5 -128 11 -169 26 -199 10 -22 24 -40 29 -42 6 -1 25 11 44 27 18 17
40 30 47 30 22 0 26 20 10 46 -14 20 -15 28 -4 47 9 15 13 63 12 152 -1 109
-6 144 -28 218 -47 156 -114 267 -231 378 -27 27 -47 50 -45 51 94 69 126 99
163 150 107 152 167 303 167 424 l0 61 68 74 c37 41 84 97 105 126 66 90 136
266 157 395 15 96 12 298 -6 381 -20 96 -120 297 -189 380 -84 102 -216 187
-368 237 -61 21 -80 22 -215 17 -207 -8 -272 -26 -424 -118 -66 -40 -144 -92
-172 -115 -150 -121 -276 -394 -276 -594 l0 -58 -70 -64 c-38 -35 -91 -91
-117 -124 -68 -84 -139 -232 -158 -326 -20 -104 -20 -256 2 -340 9 -37 15 -69
13 -71 -3 -2 -48 2 -100 9 -168 23 -466 36 -570 26 -52 -6 -98 -8 -101 -6 -4
2 9 56 27 121 31 106 34 130 34 244 0 92 -5 146 -20 202 -18 74 -85 213 -115
244 -18 17 -19 5 4 84 41 143 36 392 -10 537 -58 183 -131 311 -240 420 -101
101 -219 162 -364 188 -106 19 -205 17 -285 -5z m3282 -4510 c87 -41 135 -110
153 -220 4 -25 22 -65 41 -91 54 -75 67 -121 68 -245 1 -103 -1 -114 -30 -175
-21 -43 -56 -90 -105 -141 -65 -67 -84 -80 -159 -110 -77 -31 -94 -34 -190
-34 -105 0 -105 0 -202 47 -114 55 -196 130 -243 224 -29 57 -30 64 -30 194 0
135 0 135 37 213 28 60 55 95 115 155 108 107 136 129 228 172 95 45 112 49
191 46 43 -3 80 -13 126 -35z"/>
<path d="M2368 2849 c-90 -73 -66 -218 41 -250 32 -10 45 -8 84 9 75 33 108
122 71 195 -42 82 -128 103 -196 46z"/>
<path d="M3592 2753 c-52 -25 -77 -69 -77 -133 1 -66 21 -101 72 -125 62 -30
135 -5 173 58 38 62 17 148 -47 192 -43 29 -75 31 -121 8z"/>
<path d="M2940 2521 c-14 -4 -31 -18 -38 -31 -33 -60 58 -157 143 -153 56 2
121 36 145 76 23 37 18 63 -16 95 -22 20 -35 22 -117 21 -51 -1 -103 -4 -117
-8z"/>
<path d="M5026 2184 c-24 -24 -16 -48 17 -52 26 -3 28 -1 25 29 -4 38 -19 47
-42 23z"/>
<path d="M5313 2132 c-13 -21 0 -52 22 -52 22 0 39 38 24 56 -16 19 -32 18
-46 -4z"/>
<path d="M5144 2058 c-9 -15 18 -39 40 -36 35 5 32 35 -4 40 -17 3 -33 1 -36
-4z"/>
<path d="M4600 1709 c0 -5 5 -7 10 -4 6 3 10 8 10 11 0 2 -4 4 -10 4 -5 0 -10
-5 -10 -11z"/>
</g>
</svg>
